<?xml version="1.0" encoding="UTF-8"?>
<svg width="22px" height="16px" viewBox="0 0 22 16" version="1.1" xmlns="http://www.w3.org/2000/svg" xmlns:xlink="http://www.w3.org/1999/xlink">
    <!-- Generator: Sketch 42 (36781) - http://www.bohemiancoding.com/sketch -->
    <title>icon/camera</title>
    <desc>Created with Sketch.</desc>
    <defs></defs>
    <g id="Page-1" stroke="none" stroke-width="1" fill="none" fill-rule="evenodd">
        <g id="Desktop-HD" transform="translate(-668.000000, -677.000000)" fill="#BA2031">
            <g id="article-box" transform="translate(220.000000, 645.000000)">
                <g id="icon/camera" transform="translate(448.000000, 32.000000)">
                    <path d="M6.44843366,9.2686564 L6.57552348,2.83656192 L11.5983831,6.1532688 L6.44843366,9.2686564 Z M21.7205811,2.84331005 C21.6716571,2.6054384 21.5215112,2.52895957 21.2650821,2.57057305 C20.2978499,2.72802946 19.3272436,2.86749086 18.3571996,3.00414053 C17.7639263,3.08792984 17.7628016,3.07949467 17.6272767,3.65645996 C17.6239026,3.67051857 17.611531,3.68289014 17.5985971,3.70257219 C17.2454449,3.69526172 16.8889185,3.68851358 16.5003386,3.68064076 C16.5149596,2.93665921 16.5503873,2.22023253 16.5335169,1.50380585 C16.5262064,1.2164479 16.45029,0.908283203 16.3237625,0.649604809 C16.0937637,0.181734324 15.6956239,-0.0302694893 15.1518369,0.00347117072 C14.0440186,0.0726395237 12.9345132,0.111441283 11.8261325,0.165426339 C10.7773603,0.215474984 9.72858815,0.268897696 8.68037831,0.321758063 C7.29026312,0.39148876 5.90071028,0.462344146 4.51115743,0.530950155 C3.46238525,0.583248178 2.41361307,0.630485102 1.36484089,0.684470158 C1.05386447,0.701340488 0.791249667,0.831242029 0.575871788,1.05899148 C0.243526287,1.41158138 0.150739472,1.84402417 0.141741963,2.30852059 C0.0956297275,4.72603888 0.0467057706,7.14299482 0.000593535246,9.56051311 C-0.00221818642,9.70447326 0.00509228991,9.85068279 0.0197132426,9.99464294 C0.0860698739,10.6435883 0.571935378,11.1710673 1.16295927,11.2250523 C1.99579123,11.3015312 2.82918553,11.3729489 3.66370452,11.4359315 C3.83746892,11.4488654 3.93250511,11.5045375 4.00392284,11.6732408 C4.52296666,12.896902 5.0549444,14.1143775 5.57904932,15.3357894 C5.61785108,15.4268892 5.64821767,15.5314852 5.64653064,15.6293332 C5.64315657,15.8598943 5.74381621,15.9425589 5.97156566,15.9453707 C6.97984905,15.9577422 7.9875701,15.9824854 8.99529114,15.9999181 C9.09032733,16.0016051 9.18536353,15.9768619 9.3068299,15.960554 C8.7169307,14.5597542 8.14390182,13.1983186 7.55456496,11.7997682 C8.29742182,11.8621885 8.99416645,11.9172982 9.69034874,11.9797184 C11.2800962,12.1231162 12.8698436,12.2704505 14.459591,12.4138483 C14.7058978,12.436342 14.9555787,12.4807672 15.1990738,12.4593981 C15.8322735,12.4031637 16.3271366,11.8003306 16.3518797,11.069283 C16.3749358,10.3950321 16.3811216,9.7202189 16.3946179,9.0454057 C16.3963049,8.95543061 16.3979919,8.86545551 16.399679,8.77379339 C16.795007,8.78166621 17.1520957,8.78841434 17.5114337,8.79572482 C17.5288664,8.87895178 17.5451744,8.95261889 17.5597953,9.02628599 C17.6368365,9.42892454 17.6587679,9.44467018 18.0535337,9.51946197 C19.0837485,9.71403311 20.1145256,9.90466784 21.1402417,10.1166717 C21.3786757,10.166158 21.5158877,10.0969896 21.5704351,9.88779751 C21.6345424,9.64205304 21.6907768,9.3878734 21.6975249,9.13650548 C21.7430748,7.28301856 21.7796272,5.42953164 21.8071821,3.57604472 C21.8111185,3.33198728 21.769505,3.08399343 21.7205811,2.84331005 L21.7205811,2.84331005 Z" id="camera"></path>
                </g>
            </g>
        </g>
    </g>
</svg>