<?xml version="1.0" encoding="UTF-8"?>
<svg width="53px" height="53px" viewBox="0 0 53 53" version="1.1" xmlns="http://www.w3.org/2000/svg" xmlns:xlink="http://www.w3.org/1999/xlink">
    <!-- Generator: Sketch 42 (36781) - http://www.bohemiancoding.com/sketch -->
    <title>crossfit</title>
    <desc>Created with Sketch.</desc>
    <defs></defs>
    <g id="Page-1" stroke="none" stroke-width="1" fill="none" fill-rule="evenodd">
        <g id="Desktop-HD" transform="translate(-694.000000, -3534.000000)">
            <g id="--" transform="translate(220.000000, 3534.000000)">
                <g id="section/header">
                    <g id="crossfit" transform="translate(474.000000, 0.000000)">
                        <rect id="Rectangle-7" fill="#BA2031" x="0" y="0" width="53" height="53"></rect>
                        <g id="icon/crossfit" transform="translate(13.000000, 13.000000)" fill="#FFFFFF">
                            <g id="xfit-logo">
                                <path d="M13.9627434,0.0544571984 C14.7016281,-0.110391051 15.0987569,0.114418288 15.4599163,0.734791829 C19.2274688,7.20387743 23.0262315,13.6556907 26.8411942,20.0981965 C27.1897231,20.6866206 26.7402417,20.9613677 26.54694,21.3925506 C26.4220993,21.3238191 26.3165705,21.2744183 26.2204688,21.2114144 C23.8419976,19.6511732 21.4628858,18.0920953 19.0906383,16.5229942 C18.9224146,16.4116634 18.7737773,16.2430564 18.6713603,16.0697957 C17.3306044,13.8004922 15.9917705,11.5301148 14.6773739,9.24622374 C14.5223298,8.9768463 14.4675976,8.628893 14.4480112,8.31244163 C14.301662,5.94899027 14.1767298,3.5841965 14.0431027,1.21985019 C14.0215027,0.83627821 13.9905671,0.453153696 13.9627434,0.0544571984" id="Fill-1"></path>
                                <path d="M0.935655254,22.0789798 C2.93209932,21.1017035 4.94401119,20.2030926 6.86622814,19.1483144 C8.36596373,18.3253261 9.88766542,17.9679759 11.6041332,18.0586335 C13.5505129,18.1613728 15.5066858,18.0855712 17.4585569,18.096042 C17.6499366,18.0970265 17.8627332,18.1159097 18.0289434,18.1977969 C20.6534349,19.4902716 23.2718858,20.7943805 25.8913434,22.0966101 C25.9312485,22.1164778 25.9664858,22.145116 26.0025468,22.1688319 C25.8145536,22.8900654 25.6834892,22.9954 24.9757231,22.995042 C18.9520688,22.9918202 12.9284146,22.9894934 6.90476034,22.9842132 C5.31899085,22.9829603 3.73312983,22.9713261 2.14736034,22.9665829 C1.28381797,22.9639875 1.28381797,22.9660459 0.935655254,22.0789798" id="Fill-3"></path>
                                <path d="M13.0259898,0.0801957198 C12.9553322,1.26644086 12.8893424,2.45492335 12.8125525,3.64268988 C12.7058339,5.29305175 12.5959119,6.94314514 12.4736339,8.59243307 C12.4578915,8.80560817 12.4019695,9.03623463 12.2943356,9.21942918 C10.9590712,11.4932074 9.61318983,13.761079 8.2612678,16.0254603 C8.15766102,16.199079 8.0139661,16.3725187 7.84565085,16.483223 C5.45555593,18.0561724 3.05804746,19.618293 0.661820339,21.1823825 C0.599491525,21.2230128 0.531488136,21.2554992 0.46879322,21.2903125 C-0.122644068,20.6289506 -0.128867797,20.5620089 0.306701695,19.8277093 C4.09072881,13.4489233 7.88290169,7.07461206 11.6435898,0.682670428 C11.9762847,0.117246304 12.3195051,-0.144255642 13.0259898,0.0801957198" id="Fill-5"></path>
                            </g>
                        </g>
                    </g>
                </g>
            </g>
        </g>
    </g>
</svg>