<?xml version="1.0" encoding="UTF-8"?>
<svg width="16px" height="14px" viewBox="0 0 16 14" version="1.1" xmlns="http://www.w3.org/2000/svg" xmlns:xlink="http://www.w3.org/1999/xlink">
    <!-- Generator: Sketch 42 (36781) - http://www.bohemiancoding.com/sketch -->
    <title>gallery</title>
    <desc>Created with Sketch.</desc>
    <defs></defs>
    <g id="Page-1" stroke="none" stroke-width="1" fill="none" fill-rule="evenodd">
        <g id="Desktop-HD" transform="translate(-635.000000, -679.000000)" fill="#BA2031">
            <g id="article-box" transform="translate(220.000000, 645.000000)">
                <g id="icon/gallery" transform="translate(415.000000, 34.000000)">
                    <g id="gallery">
                        <path d="M15.7557333,2.24609677 L15.7557333,11.6884194 C12.8468444,12.4367419 9.94373333,13.1837097 7.0224,13.9351935 L7.0224,-0.000225806452 C9.93217778,0.748548387 12.8326222,1.49416129 15.7557333,2.24609677" id="Fill-1"></path>
                        <path d="M3.4324,13.287671 L3.4324,0.646574194 C4.10928889,0.871929032 4.77017778,1.0878 5.42662222,1.31586452 C5.47951111,1.33392903 5.51684444,1.42696129 5.54217778,1.49334839 C5.5604,1.53986452 5.54617778,1.59947742 5.54617778,1.65367097 C5.54617778,5.19567097 5.54306667,8.73767097 5.55284444,12.279671 C5.55284444,12.5230903 5.47551111,12.6206387 5.25595556,12.6883806 C4.65062222,12.8730903 4.05284444,13.0817355 3.4324,13.287671" id="Fill-4"></path>
                        <path d="M8.88888889e-05,1.27363871 C0.651644444,1.48950968 1.28053333,1.69454194 1.90542222,1.91086452 C1.9592,1.92938065 1.99697778,2.0224129 2.0232,2.0888 C2.04186667,2.13486452 2.02764444,2.19492903 2.02764444,2.24867097 C2.02764444,5.39460645 2.02542222,8.54099355 2.03208889,11.686929 C2.03253333,11.9077677 1.98053333,12.0179613 1.75697778,12.0843484 C1.17475556,12.2577677 0.601422222,12.4623484 8.88888889e-05,12.6628645 L8.88888889e-05,1.27363871 Z" id="Fill-6"></path>
                    </g>
                </g>
            </g>
        </g>
    </g>
</svg>