<?xml version="1.0" encoding="utf-8"?>
<!-- Generator: Adobe Illustrator 16.0.0, SVG Export Plug-In . SVG Version: 6.00 Build 0)  -->
<!DOCTYPE svg PUBLIC "-//W3C//DTD SVG 1.1//EN" "http://www.w3.org/Graphics/SVG/1.1/DTD/svg11.dtd">
<svg version="1.1" id="Layer_1" xmlns="http://www.w3.org/2000/svg" xmlns:xlink="http://www.w3.org/1999/xlink" x="0px" y="0px"
	 width="147.798px" height="114.376px" viewBox="0 0 147.798 114.376" enable-background="new 0 0 147.798 114.376"
	 xml:space="preserve">
<path fill="#BA2031" d="M65.415,33.66c0,2.164,0.646,4.161,3.472,5.585c3.02,1.582,4.348,2.126,4.348,3.92
	c0,1.15-0.488,1.486-1.328,1.486c-0.844,0-1.37-0.474-1.37-1.148v-1.724h-5.225v2.063c0,3.007,2.505,4.968,6.689,4.968
	c4.709,0,6.621-2.638,6.621-5.477c0-2.132-0.646-4.702-4.77-6.763c-2.207-1.153-3.051-1.285-3.051-2.775
	c0-0.979,0.425-1.386,1.332-1.386c0.847,0,1.205,0.407,1.205,1.085v1.555h5.188v-1.897c0-3.043-2.659-5.003-6.524-5.003
	C68.432,28.15,65.415,29.506,65.415,33.66"/>
<path fill="#BA2031" d="M58.112,43.568c0,0.675-0.557,0.983-1.234,0.983c-0.686,0-1.202-0.308-1.202-0.983V33.393
	c0-0.677,0.516-0.983,1.202-0.983c0.677,0,1.234,0.306,1.234,0.983V43.568L58.112,43.568z M56.878,28.15
	c-3.834,0-6.947,1.96-6.947,5.003v10.69c0,3.007,3.113,4.968,6.947,4.968c3.825,0,6.947-1.961,6.947-4.968v-10.69
	C63.825,30.11,60.703,28.15,56.878,28.15"/>
<path fill="#BA2031" d="M126.165,32.576v-4.052h-2.956v-3.452h-5.716v3.452h-2.465v4.052h2.465V43.4
	c0,2.567,2.048,5.072,5.685,5.072h2.726v-4.565h-1.495c-0.649,0-1.199-0.404-1.199-0.978V32.576H126.165"/>
<rect x="107.903" y="28.525" fill="#C12331" width="5.74" height="19.948"/>
<path fill="#BA2031" d="M79.986,33.66c0,2.164,0.652,4.161,3.479,5.585c3.014,1.582,4.348,2.126,4.348,3.92
	c0,1.15-0.487,1.486-1.334,1.486c-0.844,0-1.367-0.474-1.367-1.148v-1.724h-5.221v2.063c0,3.007,2.502,4.968,6.688,4.968
	c4.709,0,6.623-2.638,6.623-5.477c0-2.132-0.652-4.702-4.772-6.763c-2.207-1.153-3.051-1.285-3.051-2.775
	c0-0.979,0.416-1.386,1.331-1.386c0.842,0,1.197,0.407,1.197,1.085v1.555h5.193v-1.897c0-3.043-2.659-5.003-6.521-5.003
	C83.005,28.15,79.986,29.506,79.986,33.66"/>
<polyline fill="#BA2031" points="106.539,26.221 106.539,21.421 94.792,21.421 94.792,48.472 100.763,48.472 100.763,37.38 
	105.079,37.38 105.079,32.376 100.763,32.376 100.763,26.221 106.539,26.221 "/>
<path fill="#BA2031" d="M36.719,43.333v-5.211h-5.906v4.397c0,0.714-0.553,1.155-1.233,1.155c-0.746,0-1.295-0.441-1.295-1.155
	V27.372c0-0.709,0.549-1.152,1.295-1.152c0.68,0,1.233,0.443,1.233,1.152v4.397h5.906v-5.211c0-2.738-2.823-5.645-7.139-5.645
	c-4.382,0-7.335,2.907-7.335,5.645v16.775c0,2.739,2.953,5.648,7.335,5.648C33.896,48.982,36.719,46.073,36.719,43.333"/>
<rect x="107.903" y="21.421" fill="#BA2031" width="5.74" height="4.795"/>
<path fill="#BA2031" d="M44.151,30.281l-0.356-2.131h-5.391v20.323h5.719V36.514c0-1.826,1.523-3.56,4.669-3.56V28.15
	C46.166,28.15,44.992,29.027,44.151,30.281"/>
<path fill="#BA2031" d="M127.952,30.585c0.108,0,0.176-0.07,0.176-0.183c0-0.117-0.067-0.18-0.173-0.18h-0.159v0.363H127.952
	L127.952,30.585z M127.513,30.016h0.505c0.24,0,0.399,0.153,0.399,0.386c0,0.189-0.13,0.292-0.216,0.315v0.007
	c0,0,0.013,0.013,0.043,0.07l0.229,0.439h-0.312l-0.206-0.449h-0.159v0.449h-0.283V30.016L127.513,30.016z M127.928,31.582
	c0.513,0,0.905-0.419,0.905-0.951c0-0.528-0.393-0.947-0.905-0.947c-0.501,0-0.89,0.419-0.89,0.947
	C127.038,31.163,127.427,31.582,127.928,31.582L127.928,31.582z M127.928,29.414c0.665,0,1.197,0.542,1.197,1.217
	c0,0.675-0.532,1.22-1.197,1.22c-0.653,0-1.186-0.545-1.186-1.22C126.742,29.956,127.274,29.414,127.928,29.414"/>
<path fill="#BA2031" d="M23.192,76.996c-0.947-1.127-1.386-2.621-1.386-4.553V59.726c0-1.787,0.511-3.173,1.386-4.228
	c0.62-0.729,1.386-1.275,2.295-1.604c0.767-0.256,1.567-0.399,2.514-0.399h9.292v6.557h-8.927v12.393h5.466v-3.646h-2.367v-5.1
	h7.834v15.305H28.001c-0.947,0-1.747-0.146-2.514-0.4C24.578,78.275,23.812,77.726,23.192,76.996"/>
<path fill="#BA2031" d="M49.885,69.892h3.498l-1.748-8.199L49.885,69.892L49.885,69.892z M47.919,79.001H41.21l6.818-25.507h7.211
	l6.816,25.507h-6.741l-0.838-4.008h-5.684L47.919,79.001"/>
<polyline fill="#BA2031" points="81.023,53.494 87.835,53.494 87.835,79.001 81.279,79.001 81.279,69.089 77.416,79.001 
	74.393,79.001 70.526,69.089 70.526,79.001 63.969,79.001 63.969,53.494 70.784,53.494 75.921,66.83 81.023,53.494 "/>
<polyline fill="#BA2031" points="106.33,79.001 90.845,79.001 90.845,53.494 106.33,53.494 106.33,60.052 97.403,60.052 
	97.403,63.699 105.602,63.699 105.602,68.798 97.403,68.798 97.403,72.443 106.33,72.443 106.33,79.001 "/>
<path fill="#BA2031" d="M115.533,53.494h10.385v6.558h-10.024v2.734l10.024,2.949v5.795c0,1.824-0.365,3.354-1.094,4.592
	c-0.51,0.873-1.205,1.566-2.043,2.076c-0.909,0.549-1.932,0.803-3.06,0.803h-10.385v-6.559h10.021V69.71l-10.021-2.953v-6.705
	c0-1.929,0.438-3.423,1.383-4.554c0.62-0.729,1.388-1.275,2.297-1.604C113.782,53.639,114.583,53.494,115.533,53.494"/>
<path fill="#2556A7" d="M60.869,98.894c0.599,0.744,0.912,1.729,0.912,3v4.416l-6.601,1.945v1.801h6.601v4.32H50.86v-8.738
	l6.6-1.943v-1.801h-6.6v-4.318h6.84c0.624,0,1.152,0.096,1.656,0.264C59.957,98.054,60.46,98.414,60.869,98.894"/>
<path fill="#2556A7" d="M71.26,101.894h-2.88v8.162h2.88V101.894z M74.669,98.894c0.601,0.744,0.912,1.729,0.912,3v8.162
	c0,1.271-0.312,2.256-0.912,3c-0.409,0.48-0.913,0.84-1.512,1.057c-0.504,0.168-1.032,0.264-1.656,0.264H68.14
	c-0.624,0-1.152-0.096-1.656-0.264c-0.6-0.217-1.105-0.576-1.512-1.057c-0.624-0.744-0.912-1.729-0.912-3v-8.162
	c0-1.271,0.288-2.256,0.912-3c0.407-0.479,0.912-0.84,1.512-1.057c0.504-0.168,1.032-0.264,1.656-0.264h3.361
	c0.624,0,1.152,0.096,1.656,0.264C73.756,98.054,74.26,98.414,74.669,98.894"/>
<polyline fill="#2556A7" points="77.859,97.576 84.221,97.576 84.221,114.376 79.9,114.376 79.9,101.894 77.859,101.894 
	77.859,97.576 "/>
<polyline fill="#2556A7" points="86.5,97.576 97.541,97.576 97.541,101.894 93.388,114.376 88.828,114.376 92.98,101.894 
	86.5,101.894 86.5,97.576 "/>
<polyline fill="#BA2031" points="111.485,91.832 36.298,91.832 28.899,84.63 118.899,84.63 111.485,91.832 "/>
<polyline fill="#FFFFFF" points="46.175,86.544 46.175,87.294 44.56,87.294 44.56,87.906 46.069,87.906 46.069,88.636 44.56,88.636 
	44.56,89.939 43.488,89.939 43.488,86.544 46.175,86.544 "/>
<rect x="47.511" y="86.544" fill="#FFFFFF" width="1.076" height="3.395"/>
<polyline fill="#FFFFFF" points="49.72,86.541 52.513,86.541 52.513,87.382 51.653,87.382 51.653,89.939 50.582,89.939 
	50.582,87.382 49.72,87.382 49.72,86.541 "/>
<polyline fill="#FFFFFF" points="53.542,86.541 56.334,86.541 56.334,87.382 55.474,87.382 55.474,89.939 54.402,89.939 
	54.402,87.382 53.542,87.382 53.542,86.541 "/>
<polyline fill="#FFFFFF" points="57.515,86.544 60.203,86.544 60.203,87.291 58.592,87.291 58.592,87.794 60.097,87.794 
	60.097,88.531 58.592,88.531 58.592,89.203 60.347,89.203 60.347,89.939 57.515,89.939 57.515,86.544 "/>
<path fill="#FFFFFF" d="M62.264,88.765c0.097,0.15,0.178,0.275,0.472,0.371c0.139,0.047,0.312,0.076,0.474,0.076
	c0.088,0,0.51-0.01,0.51-0.254c0-0.025,0-0.15-0.187-0.213c-0.119-0.043-0.744-0.152-0.884-0.188
	c-0.313-0.082-0.923-0.273-0.923-0.988c0-0.15,0.033-0.305,0.096-0.439c0.221-0.5,0.793-0.697,1.404-0.697
	c0.389,0,0.744,0.078,1.024,0.217c0.253,0.125,0.378,0.26,0.5,0.385l-0.674,0.562c-0.053-0.066-0.11-0.145-0.259-0.221
	c-0.197-0.098-0.456-0.125-0.63-0.125c-0.183,0-0.385,0.047-0.385,0.221c0,0.162,0.174,0.207,0.467,0.26
	c0.754,0.131,1.504,0.266,1.504,1.105c0,0.355-0.148,0.605-0.303,0.764c-0.427,0.438-1.109,0.438-1.297,0.438
	c-0.255,0-0.524-0.023-0.789-0.102c-0.538-0.152-0.788-0.457-0.941-0.645L62.264,88.765"/>
<polyline fill="#FFFFFF" points="65.832,86.541 68.625,86.541 68.625,87.382 67.763,87.382 67.763,89.939 66.692,89.939 
	66.692,87.382 65.832,87.382 65.832,86.541 "/>
<path fill="#FFFFFF" d="M73.174,88.244c0,0.59,0.241,0.945,0.75,0.945c0.434,0,0.736-0.34,0.736-0.98
	c0-0.162-0.016-0.312-0.062-0.447c-0.164-0.471-0.576-0.484-0.673-0.484C73.54,87.277,73.174,87.541,73.174,88.244L73.174,88.244z
	 M75.741,88.208c0,0.859-0.505,1.84-1.836,1.84c-1.39,0-1.808-1.027-1.808-1.801c0-0.973,0.602-1.828,1.827-1.828
	C75.266,86.419,75.741,87.402,75.741,88.208"/>
<path fill="#FFFFFF" d="M77.154,86.544h1.14l0.765,1.283c0.188,0.354,0.239,0.453,0.412,0.832c-0.027-0.332-0.033-0.404-0.044-0.783
	v-1.332h1.007v3.395h-1.154l-0.688-1.174c-0.196-0.334-0.254-0.441-0.47-0.893c0.023,0.309,0.029,0.383,0.033,0.689v1.375h-1V86.544
	"/>
<polyline fill="#FFFFFF" points="84.195,86.544 86.882,86.544 86.882,87.291 85.271,87.291 85.271,87.794 86.775,87.794 
	86.775,88.531 85.271,88.531 85.271,89.203 87.025,89.203 87.025,89.939 84.195,89.939 84.195,86.544 "/>
<path fill="#FFFFFF" d="M89.958,87.511l-0.371,1.197h0.731L89.958,87.511L89.958,87.511z M89.352,86.544h1.222l1.268,3.395h-1.151
	l-0.15-0.471h-1.182l-0.148,0.471h-1.154L89.352,86.544"/>
<path fill="#FFFFFF" d="M94.074,87.251v0.793h0.447c0.178,0,0.519-0.01,0.519-0.395c0-0.389-0.337-0.398-0.525-0.398H94.074
	L94.074,87.251z M92.997,86.541h1.692c0.321,0,0.629,0.02,0.836,0.105c0.45,0.191,0.586,0.652,0.586,0.98
	c0,0.129-0.015,0.432-0.261,0.682c-0.134,0.145-0.277,0.197-0.436,0.26l0.827,1.369h-1.194l-0.658-1.195h-0.315v1.195h-1.077V86.541
	"/>
<polyline fill="#FFFFFF" points="97.154,86.541 99.947,86.541 99.947,87.382 99.085,87.382 99.085,89.939 98.014,89.939 
	98.014,87.382 97.154,87.382 97.154,86.541 "/>
<polyline fill="#FFFFFF" points="101.132,86.544 102.205,86.544 102.205,87.781 103.228,87.781 103.228,86.544 104.31,86.544 
	104.31,89.939 103.228,89.939 103.228,88.63 102.205,88.63 102.205,89.939 101.132,89.939 101.132,86.544 "/>
<path fill="#FFFFFF" d="M105.861,87.082c0.05,0,0.081-0.033,0.081-0.084c0-0.053-0.031-0.082-0.079-0.082h-0.074v0.166H105.861
	L105.861,87.082z M105.66,86.822h0.231c0.109,0,0.184,0.07,0.184,0.178c0,0.086-0.061,0.133-0.101,0.145v0.002
	c0,0,0.008,0.008,0.021,0.033l0.104,0.201h-0.143l-0.094-0.207h-0.074v0.207h-0.129V86.822L105.66,86.822z M105.85,87.539
	c0.235,0,0.415-0.191,0.415-0.436c0-0.242-0.18-0.436-0.415-0.436c-0.229,0-0.407,0.191-0.407,0.436S105.62,87.539,105.85,87.539
	L105.85,87.539z M105.85,86.544c0.306,0,0.55,0.248,0.55,0.559s-0.244,0.561-0.55,0.561c-0.3,0-0.544-0.25-0.544-0.561
	S105.55,86.544,105.85,86.544"/>
<path fill="#2556A7" d="M92.384,8.636c0-1.84,1.226-2.502,2.515-2.577c0.144-0.013,0.271-0.013,0.441,0
	c1.278,0.075,2.516,0.749,2.516,2.577v2.917c0,1.813-1.237,2.493-2.511,2.569c-0.063,0.007-0.392,0.007-0.446,0
	c-1.289-0.078-2.515-0.784-2.515-2.569V8.636L92.384,8.636z M94.77,16.933c0.194,0.007,0.519,0.007,0.708,0
	c3.245-0.104,5.562-2.004,5.562-5.4V8.64c0-3.378-2.316-5.3-5.602-5.398c-0.156-0.004-0.469-0.006-0.636,0
	c-3.264,0.098-5.6,2.001-5.6,5.398v2.893C89.202,14.907,91.518,16.81,94.77,16.933"/>
<path fill="#2556A7" d="M102.779,16.541h3.202v-5.874l5.307,5.874h4.038l-6.086-6.742l5.775-6.557c0,0-3.717-0.003-3.986-0.003
	c-0.271,0.309-5.048,5.732-5.048,5.732V0.03l-3.202-0.006V16.541"/>
<path fill="#2556A7" d="M51.867,8.429c0-1.757,1.159-2.429,2.535-2.495c0.142-0.008,0.298-0.008,0.426,0
	c1.399,0.066,2.566,0.793,2.566,2.49v0.229h-5.527V8.429L51.867,8.429z M54.23,16.932c0.332,0.017,0.5,0,0.729,0
	c3.898,0,5.348-1.979,5.529-4.233h-2.934c-0.087,0.417-0.215,1.517-2.685,1.517c-0.426,0-1.023-0.1-1.458-0.248
	c-1.823-0.606-1.53-2.856-1.53-2.976h8.664V8.64c0-3.388-2.375-5.287-5.637-5.393h-0.609c-3.284,0.106-5.602,2.005-5.602,5.393
	v2.895C48.697,14.77,51.115,16.791,54.23,16.932"/>
<path fill="#2556A7" d="M65.311,8.429c0-1.757,1.161-2.429,2.531-2.495c0.144-0.008,0.302-0.008,0.43,0
	c1.395,0.066,2.566,0.793,2.566,2.49v0.229h-5.53C65.308,8.61,65.311,8.506,65.311,8.429 M67.667,16.932
	c0.335,0.017,0.505,0,0.734,0c3.902,0,5.347-1.979,5.528-4.233h-2.931c-0.09,0.417-0.218,1.517-2.689,1.517
	c-0.426,0-1.021-0.1-1.454-0.248c-1.83-0.606-1.532-2.856-1.532-2.976h8.657V8.64c0-3.388-2.369-5.287-5.632-5.393h-0.603
	c-3.286,0.106-5.602,2.005-5.602,5.393v2.895C62.143,14.77,64.555,16.791,67.667,16.932"/>
<path fill="#2556A7" d="M78.898,8.662c0-1.842,1.225-2.503,2.511-2.579c0.149-0.011,0.276-0.011,0.438,0
	c1.278,0.077,2.518,0.747,2.518,2.579v2.921c0,1.806-1.244,2.487-2.506,2.567c-0.062,0-0.387,0.006-0.45,0
	c-1.288-0.085-2.511-0.788-2.511-2.567V8.662L78.898,8.662z M75.706,16.541h0.567c0,0,1.404-0.799,1.484-0.823
	c0.212,0.221,1.602,1.247,3.531,1.247c0.248,0,0.458,0.007,0.706,0c3.233-0.079,5.567-2.081,5.567-5.4V8.678
	c0-3.253-2.35-5.41-5.594-5.41c-1.49,0-2.507,0.402-3.076,0.881c0-0.244,0.004-4.125,0.004-4.125h-3.185L75.706,16.541"/>
<path fill="#2556A7" d="M37.553,2.831h3.888c1.803,0,3.381,0.562,3.381,2.26c0,1.713-0.99,2.333-3.381,2.333h-3.888L37.553,2.831
	L37.553,2.831z M37.559,16.523l-0.002-7.365l6.64,7.36h4.106L42.17,9.714c0.304,0.023,0.613,0.036,0.92,0.036
	c2.103,0,4.723-1.337,4.723-4.695C47.813,1.003,44.449,0,41.478,0h-7.152v16.523H37.559"/>
<polyline fill="#2556A7" points="113.942,97.589 130.152,81.376 130.152,25.476 137.188,17.739 132.345,12.41 122.444,12.41 
	117.218,4.559 135.817,4.559 147.798,17.739 138.006,28.513 138.006,84.632 117.196,105.441 101.15,105.441 108.927,97.589 
	113.942,97.589 "/>
<polyline fill="#2556A7" points="33.856,97.589 17.646,81.376 17.646,25.476 10.61,17.739 15.453,12.41 25.354,12.41 30.58,4.559 
	11.981,4.559 0,17.739 9.792,28.513 9.792,84.632 30.602,105.441 46.648,105.441 38.871,97.589 33.856,97.589 "/>
</svg>
